ffmpeg started on 2025-06-05 at 20:57:31
Report written to "D:\Convert\FFMetrics\reports\ssim_report-6.txt"
Log level: 32
Command line:
ffmpeg -hide_banner -nostdin -i "G:\\\xc0\xed\xe8\xec\xe5\\\xce\xed\xe3\xee\xe8\xed\xe3\xe8\\!_36_\xce\xf1\xe5\xed\xfc_2024\\DreamCast\\\xcd\xe5\xe7\xed\xe0\xea\xee\xec\xf6\xfb \xe2 \xe4\xf0\xf3\xe3\xee\xe9 \xe6\xe8\xe7\xed\xe8\\[DC] Raise wa Tanin ga Ii - 09_Telegram_HEVC.mkv" -i "G:\\\xc0\xed\xe8\xec\xe5\\\xce\xed\xe3\xee\xe8\xed\xe3\xe8\\!_36_\xce\xf1\xe5\xed\xfc_2024\\DreamCast\\\xcd\xe5\xe7\xed\xe0\xea\xee\xec\xf6\xfb \xe2 \xe4\xf0\xf3\xe3\xee\xe9 \xe6\xe8\xe7\xed\xe8\\[DC] Raise wa Tanin ga Ii - 09_Telegram.mp4" -lavfi "[0:v]settb=AVTB,setpts=PTS-STARTPTS,format=pix_fmts=yuv420p10,fps=24000/1001,scale=1920:1080:flags=bicubic[main];[1:v]settb=AVTB,setpts=PTS-STARTPTS,format=pix_fmts=yuv420p,fps=24000/1001,scale=1920:1080:flags=bicubic[ref];[main][ref]ssim=eof_action=endall:stats_file='D\\:/Convert/FFMetrics/logs/ssim_logfile-6.txt'" -f null -
Input #0, matroska,webm, from 'G:\Аниме\Онгоинги\!_36_Осень_2024\DreamCast\Незнакомцы в другой жизни\[DC] Raise wa Tanin ga Ii - 09_Telegram_HEVC.mkv':
  Metadata:
    COMPATIBLE_BRANDS: isomiso2avc1mp41
    MAJOR_BRAND     : isom
    MINOR_VERSION   : 512
    ENCODER         : Lavf61.7.100
  Duration: 00:23:46.69, start: -0.021000, bitrate: 785 kb/s
  Stream #0:0: Video: hevc (Main 10), yuv420p10le(tv, bt709, progressive), 1920x1080 [SAR 1:1 DAR 16:9], 23.98 fps, 23.98 tbr, 1k tbn (default)
      Metadata:
        HANDLER_NAME    : VideoHandler
        VENDOR_ID       : [0][0][0][0]
        ENCODER         : Lavc61.19.100 libx265
        BPS             : 587804
        DURATION        : 00:23:46.466708333
        NUMBER_OF_FRAMES: 34201
        NUMBER_OF_BYTES : 104810464
        _STATISTICS_WRITING_APP: mkvpropedit v66.0.0 ('Josie') 64-bit
        _STATISTICS_WRITING_DATE_UTC: 2025-05-31 16:11:31
        _STATISTICS_TAGS: BPS DURATION NUMBER_OF_FRAMES NUMBER_OF_BYTES
  Stream #0:1: Audio: aac (LC), 48000 Hz, stereo, fltp (default)
      Metadata:
        HANDLER_NAME    : SoundHandler
        VENDOR_ID       : [0][0][0][0]
        ENCODER         : Lavc61.19.100 aac
        BPS             : 193704
        DURATION        : 00:23:46.688000000
        NUMBER_OF_FRAMES: 66877
        NUMBER_OF_BYTES : 34544420
        _STATISTICS_WRITING_APP: mkvpropedit v66.0.0 ('Josie') 64-bit
        _STATISTICS_WRITING_DATE_UTC: 2025-05-31 16:11:31
        _STATISTICS_TAGS: BPS DURATION NUMBER_OF_FRAMES NUMBER_OF_BYTES
Input #1, mov,mp4,m4a,3gp,3g2,mj2, from 'G:\Аниме\Онгоинги\!_36_Осень_2024\DreamCast\Незнакомцы в другой жизни\[DC] Raise wa Tanin ga Ii - 09_Telegram.mp4':
  Metadata:
    major_brand     : isom
    minor_version   : 512
    compatible_brands: isomiso2avc1mp41
    encoder         : Lavf61.1.100
  Duration: 00:23:46.63, start: 0.000000, bitrate: 3823 kb/s
  Stream #1:0[0x1](und): Video: h264 (High) (avc1 / 0x31637661), yuv420p(tv, bt709, progressive), 1920x1080 [SAR 1:1 DAR 16:9], 3676 kb/s, 23.98 fps, 23.98 tbr, 24k tbn (default)
      Metadata:
        handler_name    : VideoHandler
        vendor_id       : [0][0][0][0]
        encoder         : Lavc61.3.100 h264_qsv
  Stream #1:1[0x2](und): Audio: aac (HE-AACv2) (mp4a / 0x6134706D), 48000 Hz, stereo, fltp, 144 kb/s (default)
      Metadata:
        handler_name    : SoundHandler
        vendor_id       : [0][0][0][0]
Stream mapping:
  Stream #0:0 (hevc) -> settb:default
  Stream #1:0 (h264) -> settb:default
  ssim:default -> Stream #0:0 (wrapped_avframe)
  Stream #0:1 -> #0:1 (aac (native) -> pcm_s16le (native))
Output #0, null, to 'pipe:':
  Metadata:
    COMPATIBLE_BRANDS: isomiso2avc1mp41
    MAJOR_BRAND     : isom
    MINOR_VERSION   : 512
    encoder         : Lavf61.7.100
  Stream #0:0: Video: wrapped_avframe, yuv420p10le(tv, bt709, progressive), 1920x1080 [SAR 1:1 DAR 16:9], q=2-31, 200 kb/s, 23.98 fps, 23.98 tbn
      Metadata:
        encoder         : Lavc61.19.100 wrapped_avframe
  Stream #0:1: Audio: pcm_s16le, 48000 Hz, stereo, s16, 1536 kb/s (default)
      Metadata:
        HANDLER_NAME    : SoundHandler
        VENDOR_ID       : [0][0][0][0]
        _STATISTICS_TAGS: BPS DURATION NUMBER_OF_FRAMES NUMBER_OF_BYTES
        BPS             : 193704
        DURATION        : 00:23:46.688000000
        NUMBER_OF_FRAMES: 66877
        NUMBER_OF_BYTES : 34544420
        _STATISTICS_WRITING_APP: mkvpropedit v66.0.0 ('Josie') 64-bit
        _STATISTICS_WRITING_DATE_UTC: 2025-05-31 16:11:31
        encoder         : Lavc61.19.100 pcm_s16le
frame=  163 fps=0.0 q=-0.0 size=N/A time=00:00:06.79 bitrate=N/A speed=13.2x    frame=  407 fps=398 q=-0.0 size=N/A time=00:00:16.97 bitrate=N/A speed=16.6x    frame=  670 fps=432 q=-0.0 size=N/A time=00:00:27.94 bitrate=N/A speed=  18x    frame=  928 fps=451 q=-0.0 size=N/A time=00:00:38.70 bitrate=N/A speed=18.8x    frame= 1165 fps=452 q=-0.0 size=N/A time=00:00:48.59 bitrate=N/A speed=18.8x    frame= 1408 fps=456 q=-0.0 size=N/A time=00:00:58.72 bitrate=N/A speed=  19x    frame= 1650 fps=457 q=-0.0 size=N/A time=00:01:08.81 bitrate=N/A speed=19.1x    frame= 1893 fps=459 q=-0.0 size=N/A time=00:01:18.95 bitrate=N/A speed=19.2x    frame= 2131 fps=459 q=-0.0 size=N/A time=00:01:28.88 bitrate=N/A speed=19.1x    frame= 2376 fps=461 q=-0.0 size=N/A time=00:01:39.09 bitrate=N/A speed=19.2x    frame= 2594 fps=457 q=-0.0 size=N/A time=00:01:48.19 bitrate=N/A speed=19.1x    frame= 2800 fps=453 q=-0.0 size=N/A time=00:01:56.78 bitrate=N/A speed=18.9x    frame= 3043 fps=454 q=-0.0 size=N/A time=00:02:06.91 bitrate=N/A speed=18.9x    frame= 3253 fps=451 q=-0.0 size=N/A time=00:02:15.67 bitrate=N/A speed=18.8x    frame= 3503 fps=453 q=-0.0 size=N/A time=00:02:26.10 bitrate=N/A speed=18.9x    frame= 3707 fps=450 q=-0.0 size=N/A time=00:02:34.61 bitrate=N/A speed=18.8x    frame= 3920 fps=447 q=-0.0 size=N/A time=00:02:43.49 bitrate=N/A speed=18.6x    frame= 4147 fps=447 q=-0.0 size=N/A time=00:02:52.96 bitrate=N/A speed=18.7x    frame= 4387 fps=448 q=-0.0 size=N/A time=00:03:02.97 bitrate=N/A speed=18.7x    frame= 4621 fps=448 q=-0.0 size=N/A time=00:03:12.73 bitrate=N/A speed=18.7x    frame= 4858 fps=449 q=-0.0 size=N/A time=00:03:22.61 bitrate=N/A speed=18.7x    frame= 5099 fps=450 q=-0.0 size=N/A time=00:03:32.67 bitrate=N/A speed=18.8x    frame= 5331 fps=450 q=-0.0 size=N/A time=00:03:42.34 bitrate=N/A speed=18.8x    frame= 5563 fps=450 q=-0.0 size=N/A time=00:03:52.02 bitrate=N/A speed=18.8x    frame= 5827 fps=452 q=-0.0 size=N/A time=00:04:03.03 bitrate=N/A speed=18.9x    frame= 6051 fps=452 q=-0.0 size=N/A time=00:04:12.37 bitrate=N/A speed=18.8x    frame= 6283 fps=451 q=-0.0 size=N/A time=00:04:22.05 bitrate=N/A speed=18.8x    frame= 6507 fps=451 q=-0.0 size=N/A time=00:04:31.39 bitrate=N/A speed=18.8x    frame= 6733 fps=450 q=-0.0 size=N/A time=00:04:40.82 bitrate=N/A speed=18.8x    frame= 6979 fps=451 q=-0.0 size=N/A time=00:04:51.08 bitrate=N/A speed=18.8x    frame= 7223 fps=452 q=-0.0 size=N/A time=00:05:01.25 bitrate=N/A speed=18.8x    frame= 7461 fps=452 q=-0.0 size=N/A time=00:05:11.18 bitrate=N/A speed=18.9x    frame= 7696 fps=453 q=-0.0 size=N/A time=00:05:20.98 bitrate=N/A speed=18.9x    frame= 7922 fps=452 q=-0.0 size=N/A time=00:05:30.41 bitrate=N/A speed=18.9x    frame= 8179 fps=453 q=-0.0 size=N/A time=00:05:41.13 bitrate=N/A speed=18.9x    frame= 8399 fps=453 q=-0.0 size=N/A time=00:05:50.30 bitrate=N/A speed=18.9x    frame= 8620 fps=452 q=-0.0 size=N/A time=00:05:59.52 bitrate=N/A speed=18.9x    frame= 8832 fps=451 q=-0.0 size=N/A time=00:06:08.36 bitrate=N/A speed=18.8x    frame= 9066 fps=451 q=-0.0 size=N/A time=00:06:18.12 bitrate=N/A speed=18.8x    frame= 9298 fps=451 q=-0.0 size=N/A time=00:06:27.80 bitrate=N/A speed=18.8x    frame= 9534 fps=451 q=-0.0 size=N/A time=00:06:37.64 bitrate=N/A speed=18.8x    frame= 9782 fps=452 q=-0.0 size=N/A time=00:06:47.99 bitrate=N/A speed=18.8x    frame=10014 fps=452 q=-0.0 size=N/A time=00:06:57.66 bitrate=N/A speed=18.8x    frame=10255 fps=452 q=-0.0 size=N/A time=00:07:07.71 bitrate=N/A speed=18.8x    frame=10499 fps=452 q=-0.0 size=N/A time=00:07:17.89 bitrate=N/A speed=18.9x    frame=10758 fps=453 q=-0.0 size=N/A time=00:07:28.69 bitrate=N/A speed=18.9x    frame=11015 fps=454 q=-0.0 size=N/A time=00:07:39.41 bitrate=N/A speed=18.9x    frame=11253 fps=455 q=-0.0 size=N/A time=00:07:49.34 bitrate=N/A speed=  19x    frame=11506 fps=455 q=-0.0 size=N/A time=00:07:59.89 bitrate=N/A speed=  19x    frame=11757 fps=456 q=-0.0 size=N/A time=00:08:10.36 bitrate=N/A speed=  19x    frame=11990 fps=456 q=-0.0 size=N/A time=00:08:20.08 bitrate=N/A speed=  19x    frame=12236 fps=456 q=-0.0 size=N/A time=00:08:30.34 bitrate=N/A speed=  19x    frame=12488 fps=457 q=-0.0 size=N/A time=00:08:40.85 bitrate=N/A speed=  19x    frame=12728 fps=457 q=-0.0 size=N/A time=00:08:50.86 bitrate=N/A speed=19.1x    frame=12979 fps=457 q=-0.0 size=N/A time=00:09:01.33 bitrate=N/A speed=19.1x    frame=13231 fps=458 q=-0.0 size=N/A time=00:09:11.84 bitrate=N/A speed=19.1x    frame=13482 fps=459 q=-0.0 size=N/A time=00:09:22.31 bitrate=N/A speed=19.1x    frame=13734 fps=459 q=-0.0 size=N/A time=00:09:32.82 bitrate=N/A speed=19.1x    frame=13958 fps=459 q=-0.0 size=N/A time=00:09:42.16 bitrate=N/A speed=19.1x    frame=14217 fps=459 q=-0.0 size=N/A time=00:09:52.96 bitrate=N/A speed=19.2x    frame=14454 fps=459 q=-0.0 size=N/A time=00:10:02.85 bitrate=N/A speed=19.2x    frame=14697 fps=460 q=-0.0 size=N/A time=00:10:12.98 bitrate=N/A speed=19.2x    frame=14940 fps=460 q=-0.0 size=N/A time=00:10:23.12 bitrate=N/A speed=19.2x    frame=15190 fps=460 q=-0.0 size=N/A time=00:10:33.54 bitrate=N/A speed=19.2x    frame=15457 fps=461 q=-0.0 size=N/A time=00:10:44.68 bitrate=N/A speed=19.2x    frame=15703 fps=461 q=-0.0 size=N/A time=00:10:54.94 bitrate=N/A speed=19.2x    frame=15922 fps=461 q=-0.0 size=N/A time=00:11:04.08 bitrate=N/A speed=19.2x    frame=16175 fps=461 q=-0.0 size=N/A time=00:11:14.63 bitrate=N/A speed=19.2x    frame=16422 fps=461 q=-0.0 size=N/A time=00:11:24.93 bitrate=N/A speed=19.2x    frame=16645 fps=461 q=-0.0 size=N/A time=00:11:34.23 bitrate=N/A speed=19.2x    frame=16863 fps=460 q=-0.0 size=N/A time=00:11:43.32 bitrate=N/A speed=19.2x    frame=17074 fps=460 q=-0.0 size=N/A time=00:11:52.12 bitrate=N/A speed=19.2x    frame=17299 fps=460 q=-0.0 size=N/A time=00:12:01.51 bitrate=N/A speed=19.2x    frame=17538 fps=459 q=-0.0 size=N/A time=00:12:11.48 bitrate=N/A speed=19.2x    frame=17804 fps=460 q=-0.0 size=N/A time=00:12:22.57 bitrate=N/A speed=19.2x    frame=18073 fps=461 q=-0.0 size=N/A time=00:12:33.79 bitrate=N/A speed=19.2x    frame=18314 fps=461 q=-0.0 size=N/A time=00:12:43.84 bitrate=N/A speed=19.2x    frame=18582 fps=462 q=-0.0 size=N/A time=00:12:55.02 bitrate=N/A speed=19.3x    frame=18839 fps=462 q=-0.0 size=N/A time=00:13:05.74 bitrate=N/A speed=19.3x    frame=19102 fps=463 q=-0.0 size=N/A time=00:13:16.71 bitrate=N/A speed=19.3x    frame=19348 fps=463 q=-0.0 size=N/A time=00:13:26.97 bitrate=N/A speed=19.3x    frame=19560 fps=463 q=-0.0 size=N/A time=00:13:35.81 bitrate=N/A speed=19.3x    frame=19797 fps=462 q=-0.0 size=N/A time=00:13:45.69 bitrate=N/A speed=19.3x    frame=20046 fps=463 q=-0.0 size=N/A time=00:13:56.08 bitrate=N/A speed=19.3x    frame=20304 fps=463 q=-0.0 size=N/A time=00:14:06.84 bitrate=N/A speed=19.3x    frame=20559 fps=463 q=-0.0 size=N/A time=00:14:17.48 bitrate=N/A speed=19.3x    frame=20791 fps=463 q=-0.0 size=N/A time=00:14:27.15 bitrate=N/A speed=19.3x    frame=21023 fps=463 q=-0.0 size=N/A time=00:14:36.83 bitrate=N/A speed=19.3x    frame=21267 fps=463 q=-0.0 size=N/A time=00:14:47.01 bitrate=N/A speed=19.3x    frame=21514 fps=463 q=-0.0 size=N/A time=00:14:57.31 bitrate=N/A speed=19.3x    frame=21768 fps=464 q=-0.0 size=N/A time=00:15:07.90 bitrate=N/A speed=19.3x    frame=22026 fps=464 q=-0.0 size=N/A time=00:15:18.66 bitrate=N/A speed=19.4x    frame=22283 fps=465 q=-0.0 size=N/A time=00:15:29.38 bitrate=N/A speed=19.4x    frame=22535 fps=465 q=-0.0 size=N/A time=00:15:39.89 bitrate=N/A speed=19.4x    frame=22792 fps=465 q=-0.0 size=N/A time=00:15:50.61 bitrate=N/A speed=19.4x    frame=23043 fps=465 q=-0.0 size=N/A time=00:16:01.08 bitrate=N/A speed=19.4x    frame=23306 fps=466 q=-0.0 size=N/A time=00:16:12.05 bitrate=N/A speed=19.4x    frame=23505 fps=465 q=-0.0 size=N/A time=00:16:20.35 bitrate=N/A speed=19.4x    frame=23710 fps=464 q=-0.0 size=N/A time=00:16:28.90 bitrate=N/A speed=19.4x    frame=23968 fps=465 q=-0.0 size=N/A time=00:16:39.66 bitrate=N/A speed=19.4x    frame=24201 fps=464 q=-0.0 size=N/A time=00:16:49.38 bitrate=N/A speed=19.4x    frame=24427 fps=464 q=-0.0 size=N/A time=00:16:58.80 bitrate=N/A speed=19.4x    frame=24692 fps=465 q=-0.0 size=N/A time=00:17:09.86 bitrate=N/A speed=19.4x    frame=24926 fps=465 q=-0.0 size=N/A time=00:17:19.66 bitrate=N/A speed=19.4x    frame=25179 fps=465 q=-0.0 size=N/A time=00:17:30.17 bitrate=N/A speed=19.4x    frame=25427 fps=465 q=-0.0 size=N/A time=00:17:40.51 bitrate=N/A speed=19.4x    frame=25671 fps=465 q=-0.0 size=N/A time=00:17:50.69 bitrate=N/A speed=19.4x    frame=25912 fps=465 q=-0.0 size=N/A time=00:18:00.74 bitrate=N/A speed=19.4x    frame=26158 fps=465 q=-0.0 size=N/A time=00:18:11.00 bitrate=N/A speed=19.4x    frame=26404 fps=465 q=-0.0 size=N/A time=00:18:21.26 bitrate=N/A speed=19.4x    frame=26633 fps=465 q=-0.0 size=N/A time=00:18:30.81 bitrate=N/A speed=19.4x    frame=26840 fps=464 q=-0.0 size=N/A time=00:18:39.45 bitrate=N/A speed=19.4x    frame=27068 fps=464 q=-0.0 size=N/A time=00:18:48.96 bitrate=N/A speed=19.4x    frame=27284 fps=464 q=-0.0 size=N/A time=00:18:57.97 bitrate=N/A speed=19.3x    frame=27517 fps=464 q=-0.0 size=N/A time=00:19:07.68 bitrate=N/A speed=19.3x    frame=27768 fps=464 q=-0.0 size=N/A time=00:19:18.15 bitrate=N/A speed=19.3x    frame=28019 fps=464 q=-0.0 size=N/A time=00:19:28.62 bitrate=N/A speed=19.4x    frame=28192 fps=463 q=-0.0 size=N/A time=00:19:35.84 bitrate=N/A speed=19.3x    frame=28422 fps=463 q=-0.0 size=N/A time=00:19:45.43 bitrate=N/A speed=19.3x    frame=28686 fps=463 q=-0.0 size=N/A time=00:19:56.44 bitrate=N/A speed=19.3x    frame=28911 fps=463 q=-0.0 size=N/A time=00:20:05.82 bitrate=N/A speed=19.3x    frame=29146 fps=463 q=-0.0 size=N/A time=00:20:15.63 bitrate=N/A speed=19.3x    frame=29396 fps=463 q=-0.0 size=N/A time=00:20:26.05 bitrate=N/A speed=19.3x    frame=29639 fps=463 q=-0.0 size=N/A time=00:20:36.19 bitrate=N/A speed=19.3x    frame=29895 fps=464 q=-0.0 size=N/A time=00:20:46.87 bitrate=N/A speed=19.3x    frame=30169 fps=464 q=-0.0 size=N/A time=00:20:58.29 bitrate=N/A speed=19.4x    frame=30415 fps=464 q=-0.0 size=N/A time=00:21:08.55 bitrate=N/A speed=19.4x    frame=30664 fps=464 q=-0.0 size=N/A time=00:21:18.94 bitrate=N/A speed=19.4x    frame=30921 fps=465 q=-0.0 size=N/A time=00:21:29.66 bitrate=N/A speed=19.4x    frame=31196 fps=465 q=-0.0 size=N/A time=00:21:41.13 bitrate=N/A speed=19.4x    frame=31447 fps=465 q=-0.0 size=N/A time=00:21:51.60 bitrate=N/A speed=19.4x    frame=31688 fps=465 q=-0.0 size=N/A time=00:22:01.65 bitrate=N/A speed=19.4x    frame=31939 fps=465 q=-0.0 size=N/A time=00:22:12.12 bitrate=N/A speed=19.4x    frame=32188 fps=466 q=-0.0 size=N/A time=00:22:22.50 bitrate=N/A speed=19.4x    frame=32408 fps=465 q=-0.0 size=N/A time=00:22:31.68 bitrate=N/A speed=19.4x    frame=32607 fps=465 q=-0.0 size=N/A time=00:22:39.98 bitrate=N/A speed=19.4x    frame=32800 fps=464 q=-0.0 size=N/A time=00:22:48.03 bitrate=N/A speed=19.4x    frame=33007 fps=464 q=-0.0 size=N/A time=00:22:56.66 bitrate=N/A speed=19.3x    frame=33217 fps=463 q=-0.0 size=N/A time=00:23:05.42 bitrate=N/A speed=19.3x    frame=33357 fps=462 q=-0.0 size=N/A time=00:23:11.26 bitrate=N/A speed=19.3x    frame=33550 fps=461 q=-0.0 size=N/A time=00:23:19.31 bitrate=N/A speed=19.2x    frame=33721 fps=460 q=-0.0 size=N/A time=00:23:26.44 bitrate=N/A speed=19.2x    frame=33898 fps=460 q=-0.0 size=N/A time=00:23:33.82 bitrate=N/A speed=19.2x    frame=34147 fps=460 q=-0.0 size=N/A time=00:23:44.21 bitrate=N/A speed=19.2x    [Parsed_ssim_10 @ 000002109c710d40] SSIM Y:0.994822 (22.858482) U:0.995127 (23.122136) V:0.994333 (22.466609) All:0.994791 (22.832844)
[out#0/null @ 000002108f54f080] video:14696KiB audio:267508KiB subtitle:0KiB other streams:0KiB global headers:0KiB muxing overhead: unknown
frame=34201 fps=460 q=-0.0 Lsize=N/A time=00:23:46.46 bitrate=N/A speed=19.2x    
